<?xml version="1.0" encoding="utf-8"?>
<!-- Generator: Adobe Illustrator 14.0.0, SVG Export Plug-In . SVG Version: 6.00 Build 43363)  -->
<!DOCTYPE svg PUBLIC "-//W3C//DTD SVG 1.1//EN" "http://www.w3.org/Graphics/SVG/1.1/DTD/svg11.dtd">
<svg version="1.1" id="Layer_1" xmlns="http://www.w3.org/2000/svg" xmlns:xlink="http://www.w3.org/1999/xlink" x="0px" y="0px"
	 width="1920px" height="1920px" viewBox="-952 -952 1920 1920" enable-background="new -952 -952 1920 1920" xml:space="preserve">
<g id="body">
	<polygon fill="#EA9E22" points="681.156,9.188 800.805,9.188 800.805,488.719 681.156,489.305 681.156,608.719 320.688,608.719 
		321.156,249.305 -759.781,249.305 -759.781,-711.281 -639.781,-711.281 -639.313,-470.695 560.688,-470.695 561.156,-711.281 
		680.219,-711.281 	"/>
</g>
<g id="tunic">
	<polyline id="hat_1_" fill="#88D800" points="320.219,-831.047 320.219,-953.449 -399.781,-953.449 -399.781,-831.281 
		-519.313,-831.281 -519.313,-590.695 -398.844,-590.695 -398.844,-711.281 321.273,-711.281 320.336,-590.695 440.688,-590.695 
		440.688,-831.281 	"/>
	<polyline id="torso" fill="#88D800" points="-639.781,248.953 -639.781,9.188 -519.313,9.188 -519.781,-110.344 -399.547,-110.344 
		-399.078,9.188 -279.547,9.188 -279.547,128.719 201.156,131.063 201.156,9.07 320.688,9.188 320.219,-111.281 561.156,-110.695 
		560.453,8.719 440.688,9.188 440.688,249.188 321.156,249.188 320.453,369.188 440.688,369.188 441.156,488.719 560.57,489.188 
		560.57,609.188 440.688,609.188 440.688,729.656 -519.781,729.656 -519.664,608.836 -639.781,609.656 -639.781,368.719 
		-519.43,368.719 -519.313,249.773 	"/>
</g>
<g id="accents">
	<polygon id="leftBoot" fill="#994E00" points="-159.313,969.422 -519.781,969.422 -519.781,608.719 -398.844,608.719 
		-399.313,729.656 -159.313,729.656 	"/>
	<rect id="rightBoot" x="80.219" y="728.836" fill="#994E00" width="360.469" height="119.883"/>
	<g id="beltGroup">
		<polygon id="belt" fill="#994E00" points="-638.844,249.305 -638.844,489.188 -279.781,489.188 -279.781,608.719 80.688,608.719 
			80.219,488.836 440.688,489.305 440.688,369.188 80.688,368.719 80.922,249.305 -279.781,249.305 -278.844,369.07 
			-519.781,369.07 -519.781,249.305 		"/>
		<rect x="-159.313" y="368.719" fill="#88D800" width="120" height="120"/>
		<rect x="-639.313" y="369.305" fill="#88D800" width="120" height="120"/>
	</g>
	<rect id="leftLash" x="-279.313" y="-470.695" fill="#88D800" width="120" height="120"/>
	<rect id="rightLash" x="80.688" y="-470.695" fill="#88D800" width="120" height="120"/>
	<rect id="leftEye" x="-279.313" y="-350.695" fill="#994E00" width="120" height="120"/>
	<rect id="rightEye" x="80.688" y="-350.695" fill="#994E00" width="120" height="120"/>
	<rect id="mouth" x="-159.313" y="-111.281" fill="#994E00" width="240" height="120.469"/>
	<polygon id="hair" fill="#994E00" points="-519.781,-230.695 -399.313,-230.695 -399.313,-470.695 320.688,-470.695 
		320.688,-230.695 440.688,-230.695 440.688,-590.695 320.336,-590.695 321.273,-711.281 -398.844,-711.281 -399.664,-590.695 
		-519.313,-590.695 	"/>
	<polygon id="leftArm" fill="#994E00" points="-519.313,9.188 -519.781,-110.344 -638.844,-110.344 -639.781,-230.695 
		-759.781,-230.695 -759.781,9.188 	"/>
	<polygon id="rightArm" fill="#994E00" points="440.688,9.188 440.688,129.188 561.156,129.188 561.156,249.305 681.156,249.305 
		681.156,369.305 800.57,369.305 800.805,9.188 680.688,9.188 681.039,-230.695 561.156,-230.695 561.156,9.188 	"/>
</g>
</svg>
